<svg width="4636" height="375" viewBox="0 0 4636 375" fill="none" xmlns="http://www.w3.org/2000/svg">
<path d="M0.521309 5.36363H109.364L201.693 230.506H205.955L298.284 5.36363H407.126V369H321.544V145.634H318.526L231.168 366.692H176.48L89.1222 144.391H86.1037V369H0.521309V5.36363ZM538.829 373.616C521.429 373.616 505.981 370.716 492.487 364.916C479.111 358.998 468.517 350.12 460.704 338.283C453.01 326.327 449.163 311.353 449.163 293.361C449.163 278.209 451.826 265.425 457.153 255.009C462.48 244.592 469.819 236.128 479.17 229.618C488.521 223.107 499.293 218.195 511.485 214.881C523.678 211.448 536.699 209.14 550.548 207.956C566.055 206.536 578.543 205.056 588.012 203.517C597.482 201.86 604.348 199.552 608.609 196.592C612.989 193.515 615.179 189.194 615.179 183.631V182.743C615.179 173.628 612.042 166.585 605.768 161.614C599.494 156.642 591.031 154.156 580.377 154.156C568.895 154.156 559.663 156.642 552.679 161.614C545.695 166.585 541.256 173.451 539.362 182.21L459.284 179.369C461.651 162.797 467.747 148.001 477.572 134.98C487.515 121.841 501.128 111.543 518.41 104.085C535.811 96.5095 556.703 92.7216 581.088 92.7216C598.488 92.7216 614.528 94.7931 629.206 98.9361C643.884 102.961 656.668 108.879 667.558 116.692C678.448 124.386 686.852 133.856 692.771 145.101C698.808 156.346 701.826 169.189 701.826 183.631V369H620.15V331.003H618.02C613.166 340.236 606.952 348.048 599.376 354.44C591.919 360.832 583.1 365.626 572.92 368.822C562.859 372.018 551.495 373.616 538.829 373.616ZM565.64 316.798C574.992 316.798 583.396 314.904 590.853 311.116C598.429 307.329 604.466 302.12 608.964 295.491C613.462 288.744 615.711 280.932 615.711 272.054V246.131C613.226 247.433 610.207 248.616 606.656 249.682C603.223 250.747 599.435 251.753 595.292 252.7C591.149 253.647 586.888 254.476 582.508 255.186C578.128 255.896 573.926 256.547 569.902 257.139C561.734 258.441 554.75 260.454 548.95 263.176C543.268 265.899 538.888 269.45 535.811 273.83C532.851 278.091 531.372 283.181 531.372 289.099C531.372 298.096 534.568 304.961 540.96 309.696C547.47 314.431 555.697 316.798 565.64 316.798ZM882.224 374.149C853.46 374.149 828.779 368.231 808.183 356.393C787.705 344.556 771.961 328.103 760.953 307.033C749.944 285.844 744.44 261.341 744.44 233.524C744.44 205.589 749.944 181.086 760.953 160.016C772.08 138.827 787.882 122.314 808.36 110.477C828.957 98.6401 853.519 92.7216 882.047 92.7216C907.26 92.7216 929.217 97.2789 947.92 106.393C966.741 115.508 981.419 128.411 991.954 145.101C1002.61 161.673 1008.23 181.145 1008.82 203.517H927.679C926.021 189.549 921.287 178.6 913.474 170.669C905.78 162.738 895.718 158.773 883.289 158.773C873.228 158.773 864.409 161.614 856.833 167.295C849.258 172.859 843.339 181.145 839.078 192.153C834.935 203.044 832.863 216.538 832.863 232.636C832.863 248.735 834.935 262.348 839.078 273.474C843.339 284.483 849.258 292.828 856.833 298.51C864.409 304.073 873.228 306.855 883.289 306.855C891.339 306.855 898.441 305.139 904.596 301.706C910.87 298.273 916.019 293.242 920.044 286.614C924.068 279.866 926.613 271.699 927.679 262.111H1008.82C1007.99 284.601 1002.37 304.251 991.954 321.06C981.656 337.868 967.155 350.948 948.453 360.3C929.868 369.533 907.792 374.149 882.224 374.149ZM1229.21 251.28V96.2727H1315.86V369H1233.12V318.219H1230.28C1224.24 334.909 1213.94 348.167 1199.38 357.991C1184.94 367.698 1167.48 372.551 1147.01 372.551C1128.42 372.551 1112.09 368.29 1098 359.767C1083.91 351.244 1072.96 339.348 1065.15 324.078C1057.34 308.69 1053.37 290.697 1053.26 270.101V96.2727H1140.08V253.055C1140.2 267.852 1144.11 279.511 1151.8 288.034C1159.49 296.557 1169.97 300.818 1183.23 300.818C1191.87 300.818 1199.62 298.924 1206.49 295.136C1213.47 291.23 1218.98 285.607 1223 278.268C1227.14 270.811 1229.21 261.815 1229.21 251.28ZM1457.95 5.36363V369H1371.13V5.36363H1457.95ZM1590.1 373.616C1572.7 373.616 1557.25 370.716 1543.76 364.916C1530.38 358.998 1519.79 350.12 1511.97 338.283C1504.28 326.327 1500.43 311.353 1500.43 293.361C1500.43 278.209 1503.1 265.425 1508.42 255.009C1513.75 244.592 1521.09 236.128 1530.44 229.618C1539.79 223.107 1550.56 218.195 1562.75 214.881C1574.95 211.448 1587.97 209.14 1601.82 207.956C1617.32 206.536 1629.81 205.056 1639.28 203.517C1648.75 201.86 1655.62 199.552 1659.88 196.592C1664.26 193.515 1666.45 189.194 1666.45 183.631V182.743C1666.45 173.628 1663.31 166.585 1657.04 161.614C1650.76 156.642 1642.3 154.156 1631.65 154.156C1620.17 154.156 1610.93 156.642 1603.95 161.614C1596.96 166.585 1592.53 173.451 1590.63 182.21L1510.55 179.369C1512.92 162.797 1519.02 148.001 1528.84 134.98C1538.78 121.841 1552.4 111.543 1569.68 104.085C1587.08 96.5095 1607.97 92.7216 1632.36 92.7216C1649.76 92.7216 1665.8 94.7931 1680.48 98.9361C1695.15 102.961 1707.94 108.879 1718.83 116.692C1729.72 124.386 1738.12 133.856 1744.04 145.101C1750.08 156.346 1753.1 169.189 1753.1 183.631V369H1671.42V331.003H1669.29C1664.44 340.236 1658.22 348.048 1650.65 354.44C1643.19 360.832 1634.37 365.626 1624.19 368.822C1614.13 372.018 1602.76 373.616 1590.1 373.616ZM1616.91 316.798C1626.26 316.798 1634.67 314.904 1642.12 311.116C1649.7 307.329 1655.74 302.12 1660.23 295.491C1664.73 288.744 1666.98 280.932 1666.98 272.054V246.131C1664.5 247.433 1661.48 248.616 1657.93 249.682C1654.49 250.747 1650.7 251.753 1646.56 252.7C1642.42 253.647 1638.16 254.476 1633.78 255.186C1629.4 255.896 1625.2 256.547 1621.17 257.139C1613 258.441 1606.02 260.454 1600.22 263.176C1594.54 265.899 1590.16 269.45 1587.08 273.83C1584.12 278.091 1582.64 283.181 1582.64 289.099C1582.64 298.096 1585.84 304.961 1592.23 309.696C1598.74 314.431 1606.97 316.798 1616.91 316.798ZM2243.69 137.111H2154.91C2153.72 127.996 2151.3 119.769 2147.63 112.43C2143.96 105.091 2139.1 98.8177 2133.07 93.6094C2127.03 88.401 2119.87 84.4356 2111.58 81.7131C2103.42 78.8721 2094.36 77.4517 2084.42 77.4517C2066.78 77.4517 2051.57 81.7722 2038.78 90.4133C2026.12 99.0544 2016.35 111.543 2009.49 127.878C2002.74 144.213 1999.37 163.981 1999.37 187.182C1999.37 211.33 2002.8 231.571 2009.67 247.906C2016.65 264.123 2026.42 276.375 2038.96 284.661C2051.63 292.828 2066.6 296.912 2083.88 296.912C2093.59 296.912 2102.41 295.669 2110.34 293.183C2118.39 290.697 2125.43 287.087 2131.47 282.352C2137.62 277.499 2142.66 271.64 2146.56 264.774C2150.59 257.79 2153.37 249.919 2154.91 241.159L2243.69 241.692C2242.15 257.79 2237.47 273.652 2229.66 289.277C2221.96 304.902 2211.37 319.166 2197.88 332.068C2184.38 344.852 2167.93 355.032 2148.51 362.608C2129.22 370.184 2107.08 373.972 2082.11 373.972C2049.2 373.972 2019.73 366.751 1993.69 352.31C1967.76 337.75 1947.28 316.562 1932.25 288.744C1917.22 260.927 1909.7 227.073 1909.7 187.182C1909.7 147.172 1917.34 113.259 1932.61 85.4418C1947.88 57.6245 1968.53 36.4953 1994.57 22.054C2020.61 7.61268 2049.79 0.392032 2082.11 0.392032C2104.13 0.392032 2124.49 3.46969 2143.19 9.625C2161.89 15.6619 2178.34 24.5398 2192.55 36.2585C2206.75 47.8589 2218.29 62.1226 2227.17 79.0497C2236.05 95.9768 2241.55 115.33 2243.69 137.111ZM2421.29 374.149C2392.64 374.149 2368.02 368.29 2347.42 356.571C2326.94 344.734 2311.14 328.28 2300.02 307.21C2289.01 286.022 2283.5 261.46 2283.5 233.524C2283.5 205.47 2289.01 180.908 2300.02 159.838C2311.14 138.65 2326.94 122.196 2347.42 110.477C2368.02 98.6401 2392.64 92.7216 2421.29 92.7216C2449.93 92.7216 2474.49 98.6401 2494.97 110.477C2515.57 122.196 2531.37 138.65 2542.38 159.838C2553.51 180.908 2559.07 205.47 2559.07 233.524C2559.07 261.46 2553.51 286.022 2542.38 307.21C2531.37 328.28 2515.57 344.734 2494.97 356.571C2474.49 368.29 2449.93 374.149 2421.29 374.149ZM2421.82 308.631C2432.24 308.631 2441.05 305.435 2448.28 299.043C2455.5 292.651 2461 283.773 2464.79 272.409C2468.69 261.045 2470.65 247.906 2470.65 232.991C2470.65 217.84 2468.69 204.582 2464.79 193.219C2461 181.855 2455.5 172.977 2448.28 166.585C2441.05 160.193 2432.24 156.997 2421.82 156.997C2411.05 156.997 2401.93 160.193 2394.48 166.585C2387.14 172.977 2381.51 181.855 2377.61 193.219C2373.82 204.582 2371.93 217.84 2371.93 232.991C2371.93 247.906 2373.82 261.045 2377.61 272.409C2381.51 283.773 2387.14 292.651 2394.48 299.043C2401.93 305.435 2411.05 308.631 2421.82 308.631ZM2690.37 213.46V369H2603.55V96.2727H2686.11V146.344H2689.13C2695.17 129.653 2705.47 116.573 2720.03 107.104C2734.59 97.5156 2751.93 92.7216 2772.05 92.7216C2791.23 92.7216 2807.86 97.0421 2821.94 105.683C2836.15 114.206 2847.16 126.161 2854.97 141.55C2862.9 156.82 2866.81 174.694 2866.69 195.172V369H2779.86V212.217C2779.98 197.066 2776.13 185.229 2768.32 176.706C2760.63 168.183 2749.91 163.922 2736.18 163.922C2727.07 163.922 2719.02 165.934 2712.04 169.959C2705.17 173.865 2699.84 179.488 2696.06 186.827C2692.39 194.166 2690.49 203.044 2690.37 213.46ZM3158.55 179.547L3078.82 181.678C3078 175.996 3075.75 170.965 3072.08 166.585C3068.41 162.087 3063.61 158.595 3057.69 156.109C3051.89 153.505 3045.15 152.203 3037.45 152.203C3027.39 152.203 3018.81 154.215 3011.71 158.24C3004.72 162.265 3001.29 167.71 3001.41 174.575C3001.29 179.902 3003.42 184.518 3007.8 188.425C3012.3 192.331 3020.29 195.468 3031.77 197.835L3084.33 207.778C3111.55 212.987 3131.79 221.628 3145.05 233.702C3158.43 245.776 3165.18 261.756 3165.29 281.642C3165.18 300.345 3159.61 316.621 3148.6 330.47C3137.71 344.32 3122.8 355.091 3103.86 362.786C3084.92 370.361 3063.26 374.149 3038.87 374.149C2999.93 374.149 2969.21 366.159 2946.72 350.179C2924.35 334.08 2911.57 312.537 2908.37 285.548L2994.13 283.418C2996.02 293.361 3000.94 300.937 3008.87 306.145C3016.8 311.353 3026.92 313.957 3039.23 313.957C3050.36 313.957 3059.41 311.886 3066.39 307.743C3073.38 303.6 3076.93 298.096 3077.05 291.23C3076.93 285.075 3074.21 280.162 3068.88 276.493C3063.55 272.705 3055.21 269.746 3043.85 267.615L2996.26 258.56C2968.92 253.588 2948.56 244.414 2935.18 231.038C2921.8 217.544 2915.18 200.38 2915.29 179.547C2915.18 161.318 2920.03 145.752 2929.85 132.849C2939.68 119.829 2953.65 109.885 2971.76 103.02C2989.87 96.1544 3011.23 92.7216 3035.86 92.7216C3072.79 92.7216 3101.91 100.475 3123.21 115.982C3144.52 131.37 3156.3 152.558 3158.55 179.547ZM3384 251.28V96.2727H3470.65V369H3387.91V318.219H3385.06C3379.03 334.909 3368.73 348.167 3354.17 357.991C3339.73 367.698 3322.27 372.551 3301.79 372.551C3283.21 372.551 3266.87 368.29 3252.79 359.767C3238.7 351.244 3227.75 339.348 3219.94 324.078C3212.12 308.69 3208.16 290.697 3208.04 270.101V96.2727H3294.87V253.055C3294.98 267.852 3298.89 279.511 3306.58 288.034C3314.28 296.557 3324.75 300.818 3338.01 300.818C3346.65 300.818 3354.41 298.924 3361.27 295.136C3368.26 291.23 3373.76 285.607 3377.79 278.268C3381.93 270.811 3384 261.815 3384 251.28ZM3612.74 5.36363V369H3525.91V5.36363H3612.74ZM3821.94 96.2727V160.193H3649.89V96.2727H3821.94ZM3685.94 30.9318H3772.76V283.24C3772.76 288.567 3773.59 292.887 3775.25 296.202C3777.02 299.398 3779.57 301.706 3782.88 303.126C3786.2 304.429 3790.16 305.08 3794.78 305.08C3798.09 305.08 3801.58 304.784 3805.25 304.192C3809.04 303.482 3811.88 302.89 3813.78 302.416L3826.92 365.094C3822.77 366.277 3816.91 367.757 3809.34 369.533C3801.88 371.308 3792.94 372.433 3782.53 372.906C3762.17 373.853 3744.71 371.486 3730.15 365.804C3715.71 360.004 3704.64 351.008 3696.94 338.815C3689.37 326.623 3685.7 311.294 3685.94 292.828V30.9318ZM3943.13 373.616C3925.73 373.616 3910.28 370.716 3896.78 364.916C3883.41 358.998 3872.81 350.12 3865 338.283C3857.31 326.327 3853.46 311.353 3853.46 293.361C3853.46 278.209 3856.12 265.425 3861.45 255.009C3866.78 244.592 3874.12 236.128 3883.47 229.618C3892.82 223.107 3903.59 218.195 3915.78 214.881C3927.97 211.448 3941 209.14 3954.84 207.956C3970.35 206.536 3982.84 205.056 3992.31 203.517C4001.78 201.86 4008.64 199.552 4012.91 196.592C4017.29 193.515 4019.48 189.194 4019.48 183.631V182.743C4019.48 173.628 4016.34 166.585 4010.06 161.614C4003.79 156.642 3995.33 154.156 3984.67 154.156C3973.19 154.156 3963.96 156.642 3956.98 161.614C3949.99 166.585 3945.55 173.451 3943.66 182.21L3863.58 179.369C3865.95 162.797 3872.04 148.001 3881.87 134.98C3891.81 121.841 3905.42 111.543 3922.71 104.085C3940.11 96.5095 3961 92.7216 3985.38 92.7216C4002.79 92.7216 4018.82 94.7931 4033.5 98.9361C4048.18 102.961 4060.96 108.879 4071.85 116.692C4082.74 124.386 4091.15 133.856 4097.07 145.101C4103.1 156.346 4106.12 169.189 4106.12 183.631V369H4024.45V331.003H4022.32C4017.46 340.236 4011.25 348.048 4003.67 354.44C3996.22 360.832 3987.4 365.626 3977.22 368.822C3967.16 372.018 3955.79 373.616 3943.13 373.616ZM3969.94 316.798C3979.29 316.798 3987.69 314.904 3995.15 311.116C4002.73 307.329 4008.76 302.12 4013.26 295.491C4017.76 288.744 4020.01 280.932 4020.01 272.054V246.131C4017.52 247.433 4014.5 248.616 4010.95 249.682C4007.52 250.747 4003.73 251.753 3999.59 252.7C3995.45 253.647 3991.18 254.476 3986.81 255.186C3982.43 255.896 3978.22 256.547 3974.2 257.139C3966.03 258.441 3959.05 260.454 3953.25 263.176C3947.56 265.899 3943.19 269.45 3940.11 273.83C3937.15 278.091 3935.67 283.181 3935.67 289.099C3935.67 298.096 3938.86 304.961 3945.26 309.696C3951.77 314.431 3959.99 316.798 3969.94 316.798ZM4246.04 213.46V369H4159.21V96.2727H4241.78V146.344H4244.8C4250.83 129.653 4261.13 116.573 4275.69 107.104C4290.25 97.5156 4307.59 92.7216 4327.71 92.7216C4346.89 92.7216 4363.52 97.0421 4377.61 105.683C4391.81 114.206 4402.82 126.161 4410.63 141.55C4418.56 156.82 4422.47 174.694 4422.35 195.172V369H4335.53V212.217C4335.65 197.066 4331.8 185.229 4323.99 176.706C4316.29 168.183 4305.58 163.922 4291.85 163.922C4282.73 163.922 4274.68 165.934 4267.7 169.959C4260.83 173.865 4255.51 179.488 4251.72 186.827C4248.05 194.166 4246.16 203.044 4246.04 213.46ZM4630.05 96.2727V160.193H4458V96.2727H4630.05ZM4494.04 30.9318H4580.87V283.24C4580.87 288.567 4581.69 292.887 4583.35 296.202C4585.13 299.398 4587.67 301.706 4590.99 303.126C4594.3 304.429 4598.27 305.08 4602.88 305.08C4606.2 305.08 4609.69 304.784 4613.36 304.192C4617.15 303.482 4619.99 302.89 4621.88 302.416L4635.02 365.094C4630.88 366.277 4625.02 367.757 4617.44 369.533C4609.99 371.308 4601.05 372.433 4590.63 372.906C4570.27 373.853 4552.81 371.486 4538.25 365.804C4523.81 360.004 4512.74 351.008 4505.05 338.815C4497.47 326.623 4493.8 311.294 4494.04 292.828V30.9318Z" fill="black"/>
</svg>
