<svg width="3797" height="239" viewBox="0 0 3797 239" fill="none" xmlns="http://www.w3.org/2000/svg">
<path d="M50.0426 185L0.326705 3.18181H22.6989L60.696 151.264H62.4716L101.179 3.18181H126.037L164.744 151.264H166.52L204.517 3.18181H226.889L177.173 185H154.446L114.318 40.1136H112.898L72.7699 185H50.0426ZM295.959 187.841C282.82 187.841 271.486 184.941 261.957 179.141C252.487 173.281 245.178 165.114 240.028 154.638C234.938 144.103 232.393 131.851 232.393 117.884C232.393 103.916 234.938 91.6051 240.028 80.9517C245.178 70.2391 252.339 61.8939 261.513 55.9162C270.746 49.8793 281.518 46.8608 293.828 46.8608C300.93 46.8608 307.944 48.0445 314.869 50.4119C321.793 52.7793 328.097 56.6264 333.778 61.9531C339.46 67.2206 343.988 74.2045 347.362 82.9048C350.735 91.6051 352.422 102.318 352.422 115.043V123.92H247.308V105.81H331.115C331.115 98.1155 329.576 91.25 326.499 85.2131C323.48 79.1761 319.16 74.4117 313.537 70.9197C307.973 67.4278 301.404 65.6818 293.828 65.6818C285.483 65.6818 278.262 67.7533 272.166 71.8963C266.129 75.9801 261.483 81.3068 258.228 87.8764C254.973 94.446 253.345 101.489 253.345 109.006V121.08C253.345 131.378 255.121 140.108 258.672 147.269C262.282 154.371 267.283 159.787 273.675 163.516C280.067 167.185 287.495 169.02 295.959 169.02C301.463 169.02 306.435 168.25 310.874 166.712C315.372 165.114 319.248 162.746 322.504 159.609C325.759 156.413 328.274 152.448 330.05 147.713L350.291 153.395C348.161 160.26 344.58 166.297 339.549 171.506C334.518 176.655 328.304 180.679 320.906 183.58C313.507 186.42 305.192 187.841 295.959 187.841ZM576.765 3.18181H598.782V123.565C598.782 135.994 595.852 147.092 589.993 156.857C584.193 166.564 575.996 174.228 565.401 179.851C554.807 185.414 542.378 188.196 528.114 188.196C513.851 188.196 501.422 185.414 490.827 179.851C480.233 174.228 472.006 166.564 466.147 156.857C460.347 147.092 457.447 135.994 457.447 123.565V3.18181H479.464V121.79C479.464 130.668 481.417 138.569 485.323 145.494C489.229 152.359 494.793 157.775 502.013 161.74C509.293 165.646 517.994 167.599 528.114 167.599C538.235 167.599 546.935 165.646 554.215 161.74C561.495 157.775 567.058 152.359 570.906 145.494C574.812 138.569 576.765 130.668 576.765 121.79V3.18181ZM660.86 102.969V185H639.909V48.6364H660.15V69.9432H661.926C665.122 63.0185 669.975 57.455 676.485 53.2528C682.996 48.9915 691.4 46.8608 701.698 46.8608C710.931 46.8608 719.01 48.7547 725.935 52.5426C732.86 56.2713 738.245 61.9531 742.093 69.5881C745.94 77.1638 747.863 86.7519 747.863 98.3523V185H726.911V99.7727C726.911 89.0601 724.13 80.715 718.566 74.7372C713.003 68.7003 705.368 65.6818 695.661 65.6818C688.973 65.6818 682.996 67.1319 677.728 70.032C672.52 72.9321 668.406 77.1638 665.388 82.7273C662.369 88.2907 660.86 95.0379 660.86 102.969ZM837.64 187.841C826.277 187.841 816.245 184.97 807.544 179.229C798.844 173.429 792.038 165.262 787.125 154.727C782.213 144.132 779.757 131.615 779.757 117.173C779.757 102.85 782.213 90.4214 787.125 79.8864C792.038 69.3513 798.874 61.2133 807.633 55.4723C816.393 49.7313 826.513 46.8608 837.995 46.8608C846.873 46.8608 853.887 48.3404 859.036 51.2997C864.244 54.1998 868.21 57.5142 870.932 61.2429C873.714 64.9124 875.874 67.9309 877.413 70.2983H879.189V3.18181H900.14V185H879.899V164.048H877.413C875.874 166.534 873.684 169.671 870.843 173.459C868.002 177.187 863.948 180.531 858.681 183.491C853.413 186.391 846.4 187.841 837.64 187.841ZM840.481 169.02C848.886 169.02 855.988 166.83 861.788 162.45C867.588 158.011 871.998 151.886 875.016 144.073C878.034 136.201 879.544 127.116 879.544 116.818C879.544 106.638 878.064 97.7308 875.105 90.0959C872.145 82.4018 867.766 76.424 861.966 72.1626C856.165 67.8421 849.004 65.6818 840.481 65.6818C831.603 65.6818 824.205 67.9605 818.287 72.5178C812.427 77.0159 808.018 83.1416 805.059 90.8949C802.158 98.589 800.708 107.23 800.708 116.818C800.708 126.525 802.188 135.343 805.147 143.274C808.166 151.146 812.605 157.42 818.464 162.095C824.383 166.712 831.722 169.02 840.481 169.02ZM998.596 187.841C985.456 187.841 974.122 184.941 964.593 179.141C955.124 173.281 947.814 165.114 942.665 154.638C937.575 144.103 935.03 131.851 935.03 117.884C935.03 103.916 937.575 91.6051 942.665 80.9517C947.814 70.2391 954.976 61.8939 964.15 55.9162C973.382 49.8793 984.154 46.8608 996.465 46.8608C1003.57 46.8608 1010.58 48.0445 1017.51 50.4119C1024.43 52.7793 1030.73 56.6264 1036.42 61.9531C1042.1 67.2206 1046.62 74.2045 1050 82.9048C1053.37 91.6051 1055.06 102.318 1055.06 115.043V123.92H949.945V105.81H1033.75C1033.75 98.1155 1032.21 91.25 1029.14 85.2131C1026.12 79.1761 1021.8 74.4117 1016.17 70.9197C1010.61 67.4278 1004.04 65.6818 996.465 65.6818C988.12 65.6818 980.899 67.7533 974.803 71.8963C968.766 75.9801 964.12 81.3068 960.865 87.8764C957.609 94.446 955.982 101.489 955.982 109.006V121.08C955.982 131.378 957.757 140.108 961.309 147.269C964.919 154.371 969.92 159.787 976.312 163.516C982.704 167.185 990.132 169.02 998.596 169.02C1004.1 169.02 1009.07 168.25 1013.51 166.712C1018.01 165.114 1021.89 162.746 1025.14 159.609C1028.4 156.413 1030.91 152.448 1032.69 147.713L1052.93 153.395C1050.8 160.26 1047.22 166.297 1042.19 171.506C1037.15 176.655 1030.94 180.679 1023.54 183.58C1016.14 186.42 1007.83 187.841 998.596 187.841ZM1086.93 185V48.6364H1107.17V69.233H1108.59C1111.08 62.4858 1115.58 57.0111 1122.09 52.8089C1128.6 48.6068 1135.94 46.5057 1144.1 46.5057C1145.64 46.5057 1147.57 46.5353 1149.87 46.5945C1152.18 46.6536 1153.93 46.7424 1155.11 46.8608V68.1676C1154.4 67.9901 1152.77 67.7237 1150.23 67.3686C1147.74 66.9543 1145.11 66.7472 1142.33 66.7472C1135.7 66.7472 1129.78 68.138 1124.57 70.9197C1119.42 73.6423 1115.34 77.4302 1112.32 82.2834C1109.36 87.0774 1107.88 92.5521 1107.88 98.7074V185H1086.93ZM1276.54 79.1761L1257.72 84.5028C1256.53 81.366 1254.79 78.3179 1252.48 75.3587C1250.23 72.3402 1247.15 69.8544 1243.25 67.9013C1239.34 65.9481 1234.34 64.9716 1228.24 64.9716C1219.9 64.9716 1212.94 66.8951 1207.38 70.7422C1201.88 74.5301 1199.12 79.3537 1199.12 85.2131C1199.12 90.4214 1201.02 94.5348 1204.81 97.5533C1208.59 100.572 1214.51 103.087 1222.56 105.099L1242.8 110.071C1254.99 113.03 1264.08 117.558 1270.06 123.654C1276.04 129.691 1279.02 137.474 1279.02 147.003C1279.02 154.815 1276.78 161.799 1272.28 167.955C1267.84 174.11 1261.62 178.963 1253.63 182.514C1245.64 186.065 1236.35 187.841 1225.76 187.841C1211.85 187.841 1200.34 184.822 1191.22 178.786C1182.11 172.749 1176.34 163.93 1173.91 152.33L1193.8 147.358C1195.69 154.697 1199.27 160.201 1204.54 163.871C1209.87 167.54 1216.82 169.375 1225.4 169.375C1235.17 169.375 1242.92 167.304 1248.66 163.161C1254.46 158.958 1257.36 153.928 1257.36 148.068C1257.36 143.333 1255.71 139.368 1252.39 136.172C1249.08 132.917 1243.99 130.49 1237.12 128.892L1214.39 123.565C1201.91 120.606 1192.73 116.019 1186.87 109.805C1181.07 103.531 1178.17 95.6889 1178.17 86.2784C1178.17 78.5843 1180.33 71.7779 1184.65 65.8594C1189.03 59.9408 1194.98 55.2947 1202.5 51.9212C1210.07 48.5476 1218.66 46.8608 1228.24 46.8608C1241.74 46.8608 1252.33 49.8201 1260.03 55.7386C1267.78 61.6572 1273.28 69.4697 1276.54 79.1761ZM1369.87 48.6364V66.392H1299.2V48.6364H1369.87ZM1319.8 15.9659H1340.75V145.938C1340.75 151.856 1341.61 156.295 1343.32 159.254C1345.1 162.154 1347.35 164.107 1350.07 165.114C1352.85 166.061 1355.78 166.534 1358.86 166.534C1361.17 166.534 1363.06 166.416 1364.54 166.179C1366.02 165.883 1367.2 165.646 1368.09 165.469L1372.35 184.29C1370.93 184.822 1368.95 185.355 1366.4 185.888C1363.86 186.48 1360.63 186.776 1356.73 186.776C1350.81 186.776 1345.01 185.503 1339.33 182.958C1333.7 180.413 1329.03 176.536 1325.3 171.328C1321.63 166.12 1319.8 159.55 1319.8 151.619V15.9659ZM1441.51 188.196C1432.87 188.196 1425.03 186.568 1417.98 183.313C1410.94 179.999 1405.35 175.234 1401.21 169.02C1397.06 162.746 1394.99 155.17 1394.99 146.293C1394.99 138.48 1396.53 132.147 1399.61 127.294C1402.69 122.382 1406.8 118.535 1411.95 115.753C1417.1 112.971 1422.78 110.9 1428.99 109.538C1435.27 108.118 1441.57 106.993 1447.9 106.165C1456.19 105.099 1462.91 104.3 1468.06 103.768C1473.26 103.176 1477.05 102.199 1479.42 100.838C1481.85 99.4768 1483.06 97.1094 1483.06 93.7358V93.0256C1483.06 84.2661 1480.66 77.4598 1475.87 72.6065C1471.13 67.7533 1463.94 65.3267 1454.3 65.3267C1444.29 65.3267 1436.45 67.5166 1430.77 71.8963C1425.09 76.276 1421.09 80.9517 1418.78 85.9233L1398.9 78.821C1402.45 70.535 1407.18 64.0838 1413.1 59.4673C1419.08 54.7917 1425.59 51.5365 1432.63 49.7017C1439.74 47.8078 1446.72 46.8608 1453.58 46.8608C1457.96 46.8608 1463 47.3935 1468.68 48.4588C1474.42 49.465 1479.95 51.566 1485.28 54.7621C1490.66 57.9581 1495.13 62.7817 1498.68 69.233C1502.24 75.6842 1504.01 84.3253 1504.01 95.1562V185H1483.06V166.534H1481.99C1480.57 169.493 1478.21 172.66 1474.89 176.033C1471.58 179.407 1467.17 182.277 1461.66 184.645C1456.16 187.012 1449.44 188.196 1441.51 188.196ZM1444.71 169.375C1452.99 169.375 1459.98 167.747 1465.66 164.492C1471.4 161.237 1475.72 157.035 1478.62 151.886C1481.58 146.737 1483.06 141.321 1483.06 135.639V116.463C1482.17 117.528 1480.22 118.505 1477.2 119.393C1474.24 120.221 1470.81 120.961 1466.9 121.612C1463.05 122.204 1459.3 122.737 1455.63 123.21C1452.02 123.625 1449.09 123.98 1446.84 124.276C1441.39 124.986 1436.3 126.14 1431.57 127.738C1426.89 129.277 1423.1 131.615 1420.2 134.751C1417.36 137.829 1415.94 142.031 1415.94 147.358C1415.94 154.638 1418.64 160.142 1424.02 163.871C1429.47 167.54 1436.36 169.375 1444.71 169.375ZM1563.2 102.969V185H1542.25V48.6364H1562.49V69.9432H1564.27C1567.47 63.0185 1572.32 57.455 1578.83 53.2528C1585.34 48.9915 1593.74 46.8608 1604.04 46.8608C1613.28 46.8608 1621.35 48.7547 1628.28 52.5426C1635.2 56.2713 1640.59 61.9531 1644.44 69.5881C1648.28 77.1638 1650.21 86.7519 1650.21 98.3523V185H1629.26V99.7727C1629.26 89.0601 1626.47 80.715 1620.91 74.7372C1615.35 68.7003 1607.71 65.6818 1598.01 65.6818C1591.32 65.6818 1585.34 67.1319 1580.07 70.032C1574.86 72.9321 1570.75 77.1638 1567.73 82.7273C1564.71 88.2907 1563.2 95.0379 1563.2 102.969ZM1739.98 187.841C1728.62 187.841 1718.59 184.97 1709.89 179.229C1701.19 173.429 1694.38 165.262 1689.47 154.727C1684.56 144.132 1682.1 131.615 1682.1 117.173C1682.1 102.85 1684.56 90.4214 1689.47 79.8864C1694.38 69.3513 1701.22 61.2133 1709.98 55.4723C1718.74 49.7313 1728.86 46.8608 1740.34 46.8608C1749.22 46.8608 1756.23 48.3404 1761.38 51.2997C1766.59 54.1998 1770.55 57.5142 1773.28 61.2429C1776.06 64.9124 1778.22 67.9309 1779.76 70.2983H1781.53V3.18181H1802.48V185H1782.24V164.048H1779.76C1778.22 166.534 1776.03 169.671 1773.19 173.459C1770.35 177.187 1766.29 180.531 1761.02 183.491C1755.76 186.391 1748.74 187.841 1739.98 187.841ZM1742.82 169.02C1751.23 169.02 1758.33 166.83 1764.13 162.45C1769.93 158.011 1774.34 151.886 1777.36 144.073C1780.38 136.201 1781.89 127.116 1781.89 116.818C1781.89 106.638 1780.41 97.7308 1777.45 90.0959C1774.49 82.4018 1770.11 76.424 1764.31 72.1626C1758.51 67.8421 1751.35 65.6818 1742.82 65.6818C1733.95 65.6818 1726.55 67.9605 1720.63 72.5178C1714.77 77.0159 1710.36 83.1416 1707.4 90.8949C1704.5 98.589 1703.05 107.23 1703.05 116.818C1703.05 126.525 1704.53 135.343 1707.49 143.274C1710.51 151.146 1714.95 157.42 1720.81 162.095C1726.73 166.712 1734.07 169.02 1742.82 169.02ZM1901.29 3.18181H1926.51L1976.93 88.054H1979.06L2029.49 3.18181H2054.7L1989.01 110.071V185H1966.99V110.071L1901.29 3.18181ZM2116.45 187.841C2104.14 187.841 2093.34 184.911 2084.04 179.052C2074.81 173.192 2067.59 164.995 2062.38 154.46C2057.23 143.925 2054.66 131.615 2054.66 117.528C2054.66 103.324 2057.23 90.9245 2062.38 80.3303C2067.59 69.736 2074.81 61.5092 2084.04 55.6499C2093.34 49.7905 2104.14 46.8608 2116.45 46.8608C2128.76 46.8608 2139.53 49.7905 2148.76 55.6499C2158.06 61.5092 2165.28 69.736 2170.43 80.3303C2175.63 90.9245 2178.24 103.324 2178.24 117.528C2178.24 131.615 2175.63 143.925 2170.43 154.46C2165.28 164.995 2158.06 173.192 2148.76 179.052C2139.53 184.911 2128.76 187.841 2116.45 187.841ZM2116.45 169.02C2125.8 169.02 2133.49 166.623 2139.53 161.829C2145.57 157.035 2150.04 150.732 2152.94 142.919C2155.84 135.107 2157.29 126.643 2157.29 117.528C2157.29 108.414 2155.84 99.9207 2152.94 92.049C2150.04 84.1773 2145.57 77.8149 2139.53 72.9616C2133.49 68.1084 2125.8 65.6818 2116.45 65.6818C2107.1 65.6818 2099.4 68.1084 2093.37 72.9616C2087.33 77.8149 2082.86 84.1773 2079.96 92.049C2077.06 99.9207 2075.61 108.414 2075.61 117.528C2075.61 126.643 2077.06 135.107 2079.96 142.919C2082.86 150.732 2087.33 157.035 2093.37 161.829C2099.4 166.623 2107.1 169.02 2116.45 169.02ZM2296.16 129.247V48.6364H2317.11V185H2296.16V161.918H2294.74C2291.54 168.842 2286.57 174.731 2279.82 179.585C2273.08 184.379 2264.55 186.776 2254.26 186.776C2245.73 186.776 2238.16 184.911 2231.53 181.183C2224.9 177.395 2219.69 171.713 2215.9 164.137C2212.11 156.502 2210.22 146.884 2210.22 135.284V48.6364H2231.17V133.864C2231.17 143.807 2233.95 151.738 2239.52 157.656C2245.14 163.575 2252.3 166.534 2261 166.534C2266.21 166.534 2271.51 165.202 2276.89 162.539C2282.34 159.876 2286.9 155.792 2290.57 150.288C2294.29 144.783 2296.16 137.77 2296.16 129.247ZM2355.48 185V48.6364H2375.73V69.233H2377.15C2379.63 62.4858 2384.13 57.0111 2390.64 52.8089C2397.15 48.6068 2404.49 46.5057 2412.66 46.5057C2414.2 46.5057 2416.12 46.5353 2418.43 46.5945C2420.74 46.6536 2422.48 46.7424 2423.67 46.8608V68.1676C2422.96 67.9901 2421.33 67.7237 2418.78 67.3686C2416.3 66.9543 2413.66 66.7472 2410.88 66.7472C2404.25 66.7472 2398.34 68.138 2393.13 70.9197C2387.98 73.6423 2383.89 77.4302 2380.88 82.2834C2377.92 87.0774 2376.44 92.5521 2376.44 98.7074V185H2355.48ZM2667.96 60H2645.95C2644.64 53.6671 2642.36 48.1037 2639.11 43.3097C2635.91 38.5156 2632.01 34.491 2627.39 31.2358C2622.83 27.9214 2617.77 25.4356 2612.21 23.7784C2606.65 22.1212 2600.85 21.2926 2594.81 21.2926C2583.8 21.2926 2573.83 24.0743 2564.89 29.6378C2556.01 35.2012 2548.94 43.3984 2543.67 54.2294C2538.46 65.0604 2535.86 78.3475 2535.86 94.0909C2535.86 109.834 2538.46 123.121 2543.67 133.952C2548.94 144.783 2556.01 152.981 2564.89 158.544C2573.83 164.107 2583.8 166.889 2594.81 166.889C2600.85 166.889 2606.65 166.061 2612.21 164.403C2617.77 162.746 2622.83 160.29 2627.39 157.035C2632.01 153.72 2635.91 149.666 2639.11 144.872C2642.36 140.019 2644.64 134.455 2645.95 128.182H2667.96C2666.31 137.474 2663.29 145.79 2658.91 153.129C2654.53 160.468 2649.08 166.712 2642.57 171.861C2636.06 176.951 2628.75 180.827 2620.64 183.491C2612.59 186.154 2603.98 187.486 2594.81 187.486C2579.3 187.486 2565.51 183.698 2553.44 176.122C2541.36 168.546 2531.87 157.775 2524.94 143.807C2518.02 129.839 2514.55 113.267 2514.55 94.0909C2514.55 74.9148 2518.02 58.3428 2524.94 44.375C2531.87 30.4072 2541.36 19.6354 2553.44 12.0597C2565.51 4.4839 2579.3 0.696016 2594.81 0.696016C2603.98 0.696016 2612.59 2.02769 2620.64 4.69105C2628.75 7.3544 2636.06 11.2607 2642.57 16.4098C2649.08 21.4998 2654.53 27.7142 2658.91 35.0533C2663.29 42.3331 2666.31 50.6487 2667.96 60ZM2721.65 102.969V185H2700.7V3.18181H2721.65V69.9432H2723.43C2726.62 62.9001 2731.42 57.3071 2737.81 53.1641C2744.26 48.9619 2752.84 46.8608 2763.55 46.8608C2772.85 46.8608 2780.98 48.7251 2787.97 52.4538C2794.95 56.1233 2800.37 61.7756 2804.22 69.4105C2808.12 76.9863 2810.07 86.6335 2810.07 98.3523V185H2789.12V99.7727C2789.12 88.9418 2786.31 80.567 2780.69 74.6484C2775.13 68.6707 2767.4 65.6818 2757.52 65.6818C2750.65 65.6818 2744.5 67.1319 2739.05 70.032C2733.67 72.9321 2729.4 77.1638 2726.27 82.7273C2723.19 88.2907 2721.65 95.0379 2721.65 102.969ZM2888.53 188.196C2879.89 188.196 2872.05 186.568 2865.01 183.313C2857.96 179.999 2852.37 175.234 2848.23 169.02C2844.08 162.746 2842.01 155.17 2842.01 146.293C2842.01 138.48 2843.55 132.147 2846.63 127.294C2849.71 122.382 2853.82 118.535 2858.97 115.753C2864.12 112.971 2869.8 110.9 2876.01 109.538C2882.29 108.118 2888.59 106.993 2894.92 106.165C2903.21 105.099 2909.93 104.3 2915.08 103.768C2920.29 103.176 2924.07 102.199 2926.44 100.838C2928.87 99.4768 2930.08 97.1094 2930.08 93.7358V93.0256C2930.08 84.2661 2927.68 77.4598 2922.89 72.6065C2918.15 67.7533 2910.96 65.3267 2901.32 65.3267C2891.31 65.3267 2883.47 67.5166 2877.79 71.8963C2872.11 76.276 2868.11 80.9517 2865.81 85.9233L2845.92 78.821C2849.47 70.535 2854.2 64.0838 2860.12 59.4673C2866.1 54.7917 2872.61 51.5365 2879.65 49.7017C2886.76 47.8078 2893.74 46.8608 2900.61 46.8608C2904.99 46.8608 2910.02 47.3935 2915.7 48.4588C2921.44 49.465 2926.97 51.566 2932.3 54.7621C2937.69 57.9581 2942.15 62.7817 2945.71 69.233C2949.26 75.6842 2951.03 84.3253 2951.03 95.1562V185H2930.08V166.534H2929.02C2927.59 169.493 2925.23 172.66 2921.91 176.033C2918.6 179.407 2914.19 182.277 2908.69 184.645C2903.18 187.012 2896.46 188.196 2888.53 188.196ZM2891.73 169.375C2900.01 169.375 2907 167.747 2912.68 164.492C2918.42 161.237 2922.74 157.035 2925.64 151.886C2928.6 146.737 2930.08 141.321 2930.08 135.639V116.463C2929.19 117.528 2927.24 118.505 2924.22 119.393C2921.26 120.221 2917.83 120.961 2913.92 121.612C2910.08 122.204 2906.32 122.737 2902.65 123.21C2899.04 123.625 2896.11 123.98 2893.86 124.276C2888.41 124.986 2883.32 126.14 2878.59 127.738C2873.91 129.277 2870.13 131.615 2867.23 134.751C2864.38 137.829 2862.96 142.031 2862.96 147.358C2862.96 154.638 2865.66 160.142 2871.04 163.871C2876.49 167.54 2883.38 169.375 2891.73 169.375ZM3010.23 3.18181V185H2989.27V3.18181H3010.23ZM3069.55 3.18181V185H3048.6V3.18181H3069.55ZM3165.1 187.841C3151.96 187.841 3140.63 184.941 3131.1 179.141C3121.63 173.281 3114.32 165.114 3109.17 154.638C3104.08 144.103 3101.53 131.851 3101.53 117.884C3101.53 103.916 3104.08 91.6051 3109.17 80.9517C3114.32 70.2391 3121.48 61.8939 3130.65 55.9162C3139.89 49.8793 3150.66 46.8608 3162.97 46.8608C3170.07 46.8608 3177.08 48.0445 3184.01 50.4119C3190.93 52.7793 3197.24 56.6264 3202.92 61.9531C3208.6 67.2206 3213.13 74.2045 3216.5 82.9048C3219.88 91.6051 3221.56 102.318 3221.56 115.043V123.92H3116.45V105.81H3200.26C3200.26 98.1155 3198.72 91.25 3195.64 85.2131C3192.62 79.1761 3188.3 74.4117 3182.68 70.9197C3177.11 67.4278 3170.54 65.6818 3162.97 65.6818C3154.62 65.6818 3147.4 67.7533 3141.31 71.8963C3135.27 75.9801 3130.62 81.3068 3127.37 87.8764C3124.11 94.446 3122.49 101.489 3122.49 109.006V121.08C3122.49 131.378 3124.26 140.108 3127.81 147.269C3131.42 154.371 3136.42 159.787 3142.82 163.516C3149.21 167.185 3156.64 169.02 3165.1 169.02C3170.6 169.02 3175.58 168.25 3180.01 166.712C3184.51 165.114 3188.39 162.746 3191.64 159.609C3194.9 156.413 3197.41 152.448 3199.19 147.713L3219.43 153.395C3217.3 160.26 3213.72 166.297 3208.69 171.506C3203.66 176.655 3197.44 180.679 3190.05 183.58C3182.65 186.42 3174.33 187.841 3165.1 187.841ZM3274.39 102.969V185H3253.43V48.6364H3273.68V69.9432H3275.45C3278.65 63.0185 3283.5 57.455 3290.01 53.2528C3296.52 48.9915 3304.93 46.8608 3315.22 46.8608C3324.46 46.8608 3332.54 48.7547 3339.46 52.5426C3346.38 56.2713 3351.77 61.9531 3355.62 69.5881C3359.46 77.1638 3361.39 86.7519 3361.39 98.3523V185H3340.44V99.7727C3340.44 89.0601 3337.66 80.715 3332.09 74.7372C3326.53 68.7003 3318.89 65.6818 3309.19 65.6818C3302.5 65.6818 3296.52 67.1319 3291.25 70.032C3286.05 72.9321 3281.93 77.1638 3278.91 82.7273C3275.89 88.2907 3274.39 95.0379 3274.39 102.969ZM3454.72 238.977C3444.6 238.977 3435.9 237.675 3428.62 235.071C3421.34 232.526 3415.27 229.152 3410.42 224.95C3405.62 220.807 3401.8 216.368 3398.96 211.634L3415.65 199.915C3417.55 202.401 3419.95 205.241 3422.85 208.438C3425.75 211.693 3429.71 214.504 3434.74 216.871C3439.83 219.298 3446.49 220.511 3454.72 220.511C3465.73 220.511 3474.81 217.848 3481.97 212.521C3489.13 207.195 3492.71 198.849 3492.71 187.486V159.787H3490.94C3489.4 162.273 3487.21 165.35 3484.37 169.02C3481.59 172.63 3477.56 175.856 3472.29 178.697C3467.09 181.478 3460.04 182.869 3451.17 182.869C3440.16 182.869 3430.27 180.265 3421.51 175.057C3412.81 169.848 3405.92 162.273 3400.83 152.33C3395.8 142.386 3393.28 130.312 3393.28 116.108C3393.28 102.14 3395.74 89.9775 3400.65 79.62C3405.56 69.2034 3412.4 61.1541 3421.16 55.4723C3429.92 49.7313 3440.04 46.8608 3451.52 46.8608C3460.4 46.8608 3467.44 48.3404 3472.65 51.2997C3477.92 54.1998 3481.94 57.5142 3484.72 61.2429C3487.56 64.9124 3489.75 67.9309 3491.29 70.2983H3493.42V48.6364H3513.67V188.906C3513.67 200.625 3511 210.154 3505.68 217.493C3500.41 224.891 3493.31 230.307 3484.37 233.739C3475.49 237.231 3465.61 238.977 3454.72 238.977ZM3454.01 164.048C3462.41 164.048 3469.51 162.125 3475.31 158.278C3481.11 154.431 3485.52 148.897 3488.54 141.676C3491.56 134.455 3493.07 125.814 3493.07 115.753C3493.07 105.928 3491.59 97.2573 3488.63 89.7408C3485.67 82.2242 3481.29 76.3352 3475.49 72.0739C3469.69 67.8125 3462.53 65.6818 3454.01 65.6818C3445.13 65.6818 3437.73 67.9309 3431.81 72.429C3425.95 76.9271 3421.54 82.964 3418.58 90.5398C3415.68 98.1155 3414.23 106.52 3414.23 115.753C3414.23 125.223 3415.71 133.597 3418.67 140.877C3421.69 148.098 3426.13 153.78 3431.99 157.923C3437.91 162.006 3445.25 164.048 3454.01 164.048ZM3609.19 187.841C3596.05 187.841 3584.72 184.941 3575.19 179.141C3565.72 173.281 3558.41 165.114 3553.26 154.638C3548.17 144.103 3545.63 131.851 3545.63 117.884C3545.63 103.916 3548.17 91.6051 3553.26 80.9517C3558.41 70.2391 3565.57 61.8939 3574.75 55.9162C3583.98 49.8793 3594.75 46.8608 3607.06 46.8608C3614.16 46.8608 3621.18 48.0445 3628.1 50.4119C3635.03 52.7793 3641.33 56.6264 3647.01 61.9531C3652.69 67.2206 3657.22 74.2045 3660.59 82.9048C3663.97 91.6051 3665.65 102.318 3665.65 115.043V123.92H3560.54V105.81H3644.35C3644.35 98.1155 3642.81 91.25 3639.73 85.2131C3636.71 79.1761 3632.39 74.4117 3626.77 70.9197C3621.21 67.4278 3614.64 65.6818 3607.06 65.6818C3598.72 65.6818 3591.49 67.7533 3585.4 71.8963C3579.36 75.9801 3574.72 81.3068 3571.46 87.8764C3568.21 94.446 3566.58 101.489 3566.58 109.006V121.08C3566.58 131.378 3568.35 140.108 3571.9 147.269C3575.51 154.371 3580.52 159.787 3586.91 163.516C3593.3 167.185 3600.73 169.02 3609.19 169.02C3614.7 169.02 3619.67 168.25 3624.11 166.712C3628.6 165.114 3632.48 162.746 3635.74 159.609C3638.99 156.413 3641.51 152.448 3643.28 147.713L3663.52 153.395C3661.39 160.26 3657.81 166.297 3652.78 171.506C3647.75 176.655 3641.54 180.679 3634.14 183.58C3626.74 186.42 3618.42 187.841 3609.19 187.841ZM3794.12 79.1761L3775.3 84.5028C3774.11 81.366 3772.37 78.3179 3770.06 75.3587C3767.81 72.3402 3764.73 69.8544 3760.82 67.9013C3756.92 65.9481 3751.92 64.9716 3745.82 64.9716C3737.48 64.9716 3730.52 66.8951 3724.96 70.7422C3719.45 74.5301 3716.7 79.3537 3716.7 85.2131C3716.7 90.4214 3718.6 94.5348 3722.38 97.5533C3726.17 100.572 3732.09 103.087 3740.14 105.099L3760.38 110.071C3772.57 113.03 3781.66 117.558 3787.64 123.654C3793.61 129.691 3796.6 137.474 3796.6 147.003C3796.6 154.815 3794.35 161.799 3789.86 167.955C3785.42 174.11 3779.2 178.963 3771.21 182.514C3763.22 186.065 3753.93 187.841 3743.34 187.841C3729.43 187.841 3717.92 184.822 3708.8 178.786C3699.69 172.749 3693.92 163.93 3691.49 152.33L3711.38 147.358C3713.27 154.697 3716.85 160.201 3722.12 163.871C3727.44 167.54 3734.4 169.375 3742.98 169.375C3752.75 169.375 3760.5 167.304 3766.24 163.161C3772.04 158.958 3774.94 153.928 3774.94 148.068C3774.94 143.333 3773.28 139.368 3769.97 136.172C3766.65 132.917 3761.56 130.49 3754.7 128.892L3731.97 123.565C3719.48 120.606 3710.31 116.019 3704.45 109.805C3698.65 103.531 3695.75 95.6889 3695.75 86.2784C3695.75 78.5843 3697.91 71.7779 3702.23 65.8594C3706.61 59.9408 3712.56 55.2947 3720.08 51.9212C3727.65 48.5476 3736.23 46.8608 3745.82 46.8608C3759.32 46.8608 3769.91 49.8201 3777.6 55.7386C3785.36 61.6572 3790.86 69.4697 3794.12 79.1761Z" fill="black"/>
</svg>
